# xmcd CD database file
#
# Track frame offsets:
#	150
#	23700
#	43497
#	64211
#	83738
#	102869
#	124508
#	145365
#	166652
#	184107
#	203071
#
# Disc length: 2960 seconds
#
# Revision: 13
# Processed by: cddbd v1.5.2PL0 Copyright (c) Steve Scherf et al.
# Submitted via: CDex 1.70beta2
#
DISCID=920b8e0b
DTITLE=栗林みな実 - Passage
DYEAR=2006
DGENRE=J-Pop
TTITLE0=Passage
TTITLE1=Shining☆Days
TTITLE2=小さな星が降りる時
TTITLE3=真夏のBirthday
TTITLE4=Blue Treasure
TTITLE5=あなたが・・・いない
TTITLE6=翼はPleasure Line
TTITLE7=マブラヴ
TTITLE8=beginning
TTITLE9=桜の花が咲くまえに
TTITLE10=Dream☆Wing
EXTD=YEAR: 2006
EXTT0=
EXTT1=
EXTT2=
EXTT3=
EXTT4=
EXTT5=
EXTT6=
EXTT7=
EXTT8=
EXTT9=
EXTT10=
PLAYORDER=
